<?xml version="1.0"?>
<svg width="34" height="49" xmlns="http://www.w3.org/2000/svg" xmlns:svg="http://www.w3.org/2000/svg">
 <g class="layer">
  <title>Layer 1</title>
  <g fill="#3a3b3d" id="svg_1" stroke="#3a3b3d" transform="matrix(3.73443 0 0 3.73443 -139.319 -455.357)">
   <path d="m42.23,123.12l0.45,1.02l-0.99,0.51l0.99,0.5l-0.43,1.03l1.09,-0.26l0.33,1.06l0.66,-0.89l0.93,0.61l-0.06,-1.12l1.1,-0.13l-0.77,-0.81l0.76,-0.82l-1.11,-0.13l0.05,-1.11l-0.92,0.61l-0.68,-0.89l-0.31,1.07l-1.09,-0.25zm1.09,0.46a1.34,1.32 56.004150390625 0 1 1.84,0.38a1.34,1.32 56.004150390625 0 1 -0.35,1.84a1.34,1.32 56.004150390625 0 1 -1.84,-0.37a1.34,1.32 56.004150390625 0 1 0.35,-1.85z" fill="#cccccc" id="svg_2" stroke="#cccccc" stroke-width="0.12"/>
   <g id="svg_3" stroke-linecap="round" transform="matrix(0.304883 0 0 0.304883 23.3451 86.1001)">
    <path d="m55.46,160.36l0.94,-24.18l0.9,0l0.96,24.2l-2.8,-0.02z" fill="#cccccc" id="svg_4" stroke="#cccccc" stroke-width="0.44"/>
    <circle cx="56.85" cy="134.39" fill="#cccccc" id="svg_5" r="1.36" stroke="#cccccc"/>
    <g id="svg_6" stroke-width="0.16">
     <path d="m54.54,135.15c-4.05,1.71 -6.36,3.61 -8.55,5.59c2.9,-0.94 5.29,-1.85 9.04,-4.74a2.44,2.44 0 0 1 -0.49,-0.85z" fill="#cccccc" id="svg_7" stroke="#cccccc"/>
     <path d="m59.16,135.15a2.44,2.44 0 0 1 -0.48,0.85c3.75,2.91 6.12,3.82 9.03,4.76c-2.2,-1.99 -4.48,-3.89 -8.55,-5.61z" fill="#cccccc" id="svg_8" stroke="#cccccc"/>
     <path d="m56.81,121.79c-0.64,2.99 -1.05,5.51 -0.41,10.2a2.44,2.44 0 0 1 0.45,-0.04a2.44,2.44 0 0 1 0.55,0.06c0.53,-4.37 0.03,-7.33 -0.59,-10.22z" fill="#cccccc" id="svg_9" stroke="#cccccc"/>
    </g>
   </g>
  </g>
 </g>
</svg>